<svg width="16" height="24" viewBox="0 0 16 24" fill="none" xmlns="http://www.w3.org/2000/svg">
<path fill-rule="evenodd" clip-rule="evenodd" d="M10.5024 1.36525C7.67788 0.319426 4.5009 1.14038 2.53668 3.42365C0.572562 5.7068 0.235569 8.97096 1.69133 11.6075L8.0002 23.0832L14.3086 11.5861C14.8973 10.524 15.2063 9.32929 15.2067 8.11497C15.2031 5.10308 13.3269 2.41107 10.5024 1.36525ZM8.00113 2.53486C9.98644 2.52665 11.8266 3.57383 12.8336 5.28484C13.8406 6.99586 13.8627 9.11302 12.8916 10.8447L8.0005 19.7847L3.12061 10.8264L3.11951 10.8244C2.1596 9.09568 2.18618 6.98808 3.18937 5.28412C4.19255 3.58016 6.02255 2.5343 7.99989 2.53486L8.00113 2.53486Z" fill="#BC0B34"/>
</svg>
