<?xml version="1.0" encoding="utf-8"?>
<!-- Generator: Adobe Illustrator 28.0.0, SVG Export Plug-In . SVG Version: 6.00 Build 0)  -->
<svg version="1.1" id="Livello_1" xmlns="http://www.w3.org/2000/svg" xmlns:xlink="http://www.w3.org/1999/xlink" x="0px" y="0px"
	 viewBox="0 0 38 38" style="enable-background:new 0 0 38 38;" xml:space="preserve">
<style type="text/css">
	.st0{fill-rule:evenodd;clip-rule:evenodd;fill:#970A2C;}
</style>
<path class="st0" d="M15.2,0.8C7.1,0.8,0.5,7.3,0.5,15.5c0,8.1,6.6,14.7,14.7,14.7h0l0,0c3.3,0,6.5-1.2,9.2-3.2l10.2,10.3l2.5-2.5
	L26.8,24.7c2-2.6,3.2-5.8,3.2-9.2v0C30,7.3,23.4,0.8,15.2,0.8z M3.9,15.5C3.9,9.2,9,4.1,15.2,4.1c6.3,0,11.4,5.1,11.4,11.4
	c0,3-1.2,5.9-3.3,8s-5,3.3-8,3.3C9,26.9,3.9,21.8,3.9,15.5z"/>
</svg>
